<?xml version="1.0" encoding="utf-8"?>
<!-- Generator: Adobe Illustrator 21.0.0, SVG Export Plug-In . SVG Version: 6.00 Build 0)  -->
<svg version="1.1" id="logo" xmlns="http://www.w3.org/2000/svg" xmlns:xlink="http://www.w3.org/1999/xlink" x="0px" y="0px"
	 viewBox="0 0 110.1 110.1" style="enable-background:new 0 0 110.1 110.1;" xml:space="preserve">
<style type="text/css">
	.st0{fill:#FFFFFF;}
</style>
<g>
	<path class="st0" d="M88.2,26.1c-0.1-1.6-0.8-2.4-2.1-2.3l-13.9,0.7L72,21.6c-0.1-1.5-1-2.2-2.9-2c-1.8,0.1-2.7,0.9-2.6,2.3
		l0.2,2.9L44.9,26l-0.2-2.8c-0.1-1.5-1-2.2-2.9-2.1c-1.8,0.1-2.7,0.9-2.6,2.4l0.2,2.8l-14.9,0.8c-1.3,0.1-1.9,0.9-1.8,2.5
		c0.1,1.6,0.8,2.4,2.1,2.4l14.9-0.8l0.2,3.4c0.1,2.2,0.6,3.7,1.6,4.4c0.9,0.7,2.5,1.1,4.8,1l20.6-1.1c2.3-0.1,3.9-0.6,4.7-1.5
		c0.8-0.8,1.1-2.4,1-4.5l-0.2-3.4l13.9-0.7C87.7,28.6,88.3,27.7,88.2,26.1z M67.1,32.3c0.1,1.3-0.6,1.9-1.9,2l-17.7,0.9
		c-1.4,0.1-2.1-0.5-2.1-1.8l-0.1-2.6l21.8-1.2L67.1,32.3z"/>
	<path class="st0" d="M43.6,80c0.7-0.2,1.3-0.3,1.9-0.3c0.9,0.1,1.6,0.5,2.1,1.2c0.4,0.6,0.5,1.1,0.5,1.6c-0.1,0.9-0.7,1.6-1.7,2.1
		c-6.6,2.8-14.5,4.2-23.6,4.1l-0.4,0c-1.6-0.1-2.5-1.1-2.7-2.8l0-0.4c0.1-1.6,1-2.5,2.7-2.5C30.2,83.1,37.3,82.1,43.6,80z"/>
	<path class="st0" d="M19.6,45.4c0-1.6,0.6-2.4,2-2.4l67.1,1.2c1.3,0,1.9,0.8,1.9,2.4c0,1.6-0.6,2.5-2,2.4l-67.1-1.2
		C20.2,47.9,19.6,47.1,19.6,45.4z"/>
	<g>
		<path class="st0" d="M58.4,71.5L58.4,71.5c-0.4-0.1-0.7,0-0.9,0.1c-0.3,0.2-0.4,0.5-0.4,1c-0.1,0.3-0.1,0.5,0,0.7
			c0.1,0.2,0.4,0.4,0.7,0.5l0.1,0c0,0,0.1,0,0.1,0c0.7,0,1.1-0.4,1.2-1C59.2,72.6,59.3,72,58.4,71.5z"/>
		<path class="st0" d="M54.4,71.5l-0.1-0.1l-0.1,0C53.4,71.7,53,72,53,72.4c-0.1,0.4,0.2,0.9,0.8,1.5l0.1,0.1l0.1,0
			c0.6-0.1,0.9-0.4,1.1-1C55.1,72.1,54.7,71.7,54.4,71.5z"/>
		<path class="st0" d="M70.6,57.1c-0.9-0.5-1.8-0.5-2.6-0.5h-0.3c-0.5,0-1.1,0.1-1.8,0.2c-1.5-1.7-3.2-3.4-5.2-4.3
			c-2.1-1-4.4-1.5-6.7-1.5c-2.4,0-4.7,0.7-6.7,1.9c-0.3,0.1-0.8,0.4-1.1,0.3c-0.1,0-0.1,0-0.1-0.1c-0.8-0.5-1.6-1-2.5-1.2
			c-1.6-0.4-3.7-0.6-5,0.6c-0.5,0.5-0.9,1.2-0.7,2c0.2,0.7,1,0.7,1.6,0.8c1.1,0.1,2,1,2.3,1.9c0.1,0.4,0.2,0.8,0.1,1.2
			c-0.1,0.6-0.5,1.2-0.7,1.7c-0.3,0.7-0.5,1.4-0.7,2.2c-0.9,3.9-0.2,7.7,2,11.1c1.8,2.7,4.1,4.8,7.2,5.8c4.5,1.5,9.2,0.7,13.1-1.9
			c2.9-1.9,5.1-4.8,5.5-8.3c0.2-1.6,0.3-3.5,0-5c-0.2-1.1,0-1.3,0.1-1.3c0.1,0,0.2,1.1,0.2,1.2c0.1,1,0.1,2.1,0.7,2.9
			c0,0,0.1-0.1,0.1-0.1c0,0,0.1-0.1,0.1-0.1c0.2-0.4,0.5-0.7,0.7-1.1C71.7,63.1,73.9,59,70.6,57.1z M40.7,53.2
			c1.2-0.2,2.5,0.2,3.9,1.4c0.2,0.2,0.2,0.3,0.2,0.4c0,0-0.2,0.1-0.5-0.1C43.3,54,42.1,53.4,40.7,53.2z M60.6,73.8l0,0.1
			c-0.1,0.4-0.6,1.8-1.3,2.4c-0.8,0.7-3.3,0.5-4.6,0.4c-1.4-0.7-2.6-2.3-2.9-4.1c-0.3-1.4,0-2.8,0.8-3.7c0.6-0.8,3.4-1.7,5.9-1
			c0.5,0.1,1.4,0.6,1.7,0.9c0.4,0.4,0.6,1.4,0.8,2l0,0.1C61.2,71.9,61,72.7,60.6,73.8z M65.9,68.5c-0.6,1.9-1.6,3.8-3.1,5.4
			c0.5-2.1,0.8-5.3-0.8-6.9c-1.9-1.7-5.2-2.2-7.5-1.8c-1.9,0.3-3.1,1.5-4.1,2.8c-0.8,1-1.3,2-1.4,3.1c-0.2,2.2,0.9,4.3,2.4,5.9
			c-3.1-0.9-5.9-3.4-8.1-7.3c-0.5-0.7-1-2.2-0.8-5.3l0.5-2.7c1.1-3.9,3.9-6.6,8.3-7.9c1.2-0.3,2.3-0.4,3.4-0.4c1.7,0,3.2,0.3,4.5,1
			C65.1,57.6,67.3,62.2,65.9,68.5z"/>
	</g>
	<path class="st0" d="M65.3,77.9c0.6,0,1.2,0.3,1.8,0.7c4.7,2.8,11,5,19.1,6.5c1.5,0.3,2.1,1.2,2,2.8l0,0.4
		c-0.4,1.6-1.3,2.4-2.9,2.2c-0.2,0-0.4-0.1-0.6-0.1c-8.2-1.6-15.2-4.1-21-7.6c-1-0.6-1.4-1.4-1.3-2.4c0.1-0.6,0.3-1.2,0.7-1.7
		C63.8,78.1,64.5,77.8,65.3,77.9z"/>
</g>
</svg>
