<svg xmlns="http://www.w3.org/2000/svg" width="1708" height="1707" viewBox="0 0 1708 1707" version="1.1">
	<path d="M 848.313 158.250 C 842.078 166.584, 834.379 180.107, 830.238 190 C 818.706 217.544, 816 229.684, 816 253.869 C 816 275.064, 818.770 288.677, 825.993 302.987 C 828.973 308.889, 829.737 312, 828.207 312 C 827.770 312, 824.733 309.711, 821.457 306.912 C 810.361 297.436, 790.341 285.218, 778.754 280.850 C 761.002 274.159, 746.356 271.789, 722.500 271.745 C 703.426 271.709, 692.568 272.659, 671.712 276.187 C 661.552 277.906, 661.307 278.234, 663.975 286.574 C 669.450 303.693, 672.723 310.957, 682.332 327.319 C 686.150 333.820, 691.509 341.584, 694.242 344.574 C 697.047 347.643, 698.979 350.613, 698.679 351.394 C 698.387 352.155, 695.977 353.558, 693.324 354.511 C 690.671 355.464, 687.150 356.814, 685.500 357.511 C 683.850 358.207, 681.375 359.107, 680 359.509 C 675.134 360.933, 643.296 375.328, 628.697 382.705 C 550.046 422.446, 484.211 477.032, 432.341 545.512 C 408.088 577.532, 383.367 620.617, 367.511 658.500 C 366.821 660.150, 365.116 664.200, 363.723 667.500 C 354.043 690.426, 346.670 713.094, 338.998 743.519 C 333.309 766.077, 332.113 773.824, 334.121 775.096 C 334.879 775.576, 339.422 775.976, 344.216 775.985 C 373.069 776.035, 416.539 780.385, 440 785.569 C 443.575 786.359, 447.236 787.004, 448.135 787.003 C 451.928 786.997, 480.893 796.466, 488.742 800.279 C 496.619 804.104, 505.724 811.447, 508.239 816 C 510.001 819.190, 510.120 820.915, 509.591 835.500 C 509.024 851.096, 507.360 866.277, 504.439 882.500 C 503.647 886.900, 503.004 891.850, 503.011 893.500 C 503.019 895.150, 502.320 901.900, 501.459 908.500 C 497.395 939.658, 495.873 950.962, 494.999 956.500 C 492.459 972.599, 489.884 987.946, 489.044 992 C 488.531 994.475, 487.154 1001.675, 485.985 1008 C 484.815 1014.325, 483.236 1022.200, 482.478 1025.500 C 481.719 1028.800, 479.721 1037.575, 478.038 1045 C 474.852 1059.059, 474.328 1061.127, 468.546 1082.500 C 464.980 1095.678, 464.511 1097.299, 458.853 1116 C 454.939 1128.938, 448.234 1143.517, 442.507 1151.542 C 437.728 1158.240, 426.542 1169.151, 422.101 1171.448 C 420.529 1172.261, 418.989 1173.587, 418.679 1174.394 C 418.129 1175.828, 426.615 1188.696, 431.709 1194.151 C 435.774 1198.505, 434.543 1200.306, 426.491 1201.780 C 404.996 1205.717, 384.519 1215.927, 370.571 1229.662 C 354.993 1245.002, 345.359 1261.625, 342.597 1277.926 C 340.613 1289.636, 340.608 1293.023, 342.551 1306.020 C 344.149 1316.706, 346.252 1325.060, 349.973 1335.500 C 351.149 1338.800, 352.388 1342.400, 352.727 1343.500 C 353.066 1344.600, 356.539 1351.800, 360.445 1359.500 C 379.195 1396.461, 404.593 1425.606, 438.712 1449.314 C 443.228 1452.453, 447.953 1455.472, 449.212 1456.023 C 450.470 1456.574, 453.075 1457.981, 455 1459.149 C 475.564 1471.629, 501.487 1480.001, 519.560 1479.999 C 527.230 1479.998, 538.508 1477.933, 544.570 1475.418 C 556.751 1470.366, 572.780 1453.987, 581.127 1438.065 C 583.283 1433.951, 586.562 1430.095, 591.865 1425.436 C 596.064 1421.748, 603.325 1415.249, 608 1410.996 C 626.308 1394.337, 649.443 1373.947, 654.895 1369.663 C 660.345 1365.382, 660.768 1365.226, 663.562 1366.466 C 677.072 1372.463, 708.545 1382.740, 730.500 1388.323 C 733.800 1389.163, 738.525 1390.391, 741 1391.052 C 765.910 1397.713, 803.431 1403.708, 842 1407.191 C 860.913 1408.898, 921.152 1408.894, 938.500 1407.184 C 945.650 1406.479, 955.775 1405.477, 961 1404.958 C 982.788 1402.794, 1009.404 1398.470, 1034.500 1393.016 C 1040 1391.821, 1046.501 1390.425, 1048.948 1389.915 C 1051.394 1389.404, 1054.769 1388.569, 1056.448 1388.058 C 1058.126 1387.547, 1062.200 1386.422, 1065.500 1385.558 C 1087.984 1379.668, 1122.939 1368.450, 1139 1361.971 C 1149.834 1357.600, 1149.421 1357.471, 1163.630 1369.643 C 1178.728 1382.575, 1202.811 1403.919, 1216 1416.054 C 1221.225 1420.862, 1227.341 1426.304, 1229.590 1428.148 C 1232.031 1430.148, 1235.229 1434.422, 1237.519 1438.743 C 1241.887 1446.986, 1254.544 1462.012, 1262.252 1468.105 C 1279.294 1481.576, 1303.284 1483.572, 1331.500 1473.866 C 1345.922 1468.905, 1371.739 1455.494, 1383 1447.113 C 1412.746 1424.975, 1436.630 1398.917, 1450.576 1373.388 C 1452.645 1369.600, 1455.387 1364.821, 1456.669 1362.770 C 1457.951 1360.718, 1459 1358.816, 1459 1358.542 C 1459 1358.268, 1460.527 1354.771, 1462.393 1350.772 C 1471.209 1331.878, 1477.055 1307.932, 1476.987 1291 C 1476.962 1284.784, 1475.028 1271.724, 1473.507 1267.500 C 1468.834 1254.520, 1455.119 1235.281, 1443.743 1225.749 C 1428.821 1213.245, 1410.064 1204.926, 1388.750 1201.359 C 1380.966 1200.056, 1378 1199.167, 1378 1198.138 C 1378 1197.356, 1379.937 1194.417, 1382.305 1191.608 C 1391.860 1180.272, 1401.096 1167.727, 1412.526 1150.561 L 1424.553 1132.500 1438.526 1131.722 C 1453.469 1130.890, 1461.010 1129.198, 1474 1123.762 C 1492.014 1116.224, 1504.879 1104.375, 1510.114 1090.500 C 1513.017 1082.807, 1513.251 1067.422, 1510.592 1059 C 1508.181 1051.361, 1502.916 1038.819, 1501.324 1036.921 C 1500.596 1036.053, 1500 1034.990, 1500 1034.559 C 1500 1033.518, 1487.223 1014.185, 1484.430 1011 C 1480.611 1006.645, 1479.209 1002.978, 1480.069 999.595 C 1483.252 987.081, 1484.075 983.751, 1485.402 978 C 1488.836 963.126, 1492.660 942.832, 1493.505 935 C 1493.831 931.975, 1494.525 926.800, 1495.048 923.500 C 1498.929 898.981, 1500.475 843.660, 1498.079 815 C 1496.032 790.513, 1495.538 786.492, 1491.015 757.500 C 1490.414 753.650, 1489.234 747.575, 1488.394 744 C 1487.553 740.425, 1486.198 734.575, 1485.383 731 C 1480.752 710.681, 1470.023 675.892, 1463.948 661.500 C 1463.484 660.400, 1460.549 653.425, 1457.426 646 C 1445.626 617.942, 1430.880 590.660, 1413.376 564.500 C 1399.290 543.449, 1397.497 540.966, 1386.986 527.966 C 1334.814 463.438, 1271.676 413.168, 1197.500 377.097 C 1168.138 362.818, 1153.581 356.841, 1126 347.739 C 1104.134 340.523, 1100.050 339.271, 1085.629 335.362 C 1081.851 334.338, 1078.528 332.906, 1078.245 332.179 C 1077.963 331.453, 1079.290 329.203, 1081.194 327.179 C 1087.301 320.689, 1098.691 304.447, 1102.844 296.305 L 1104.962 292.154 1100.231 288.260 C 1083.787 274.723, 1065.301 267.070, 1042.612 264.406 C 1032.132 263.175, 1027.894 263.089, 1021.500 263.978 C 999.540 267.028, 982.638 275.983, 954.635 299.404 C 940.195 311.480, 937.200 313.123, 938.501 308.250 C 938.905 306.738, 939.435 297.850, 939.680 288.500 C 940.150 270.519, 939.123 263.372, 934.202 250.370 C 929.660 238.370, 920.571 223.268, 908.876 208.289 C 902.120 199.635, 855.375 153, 853.457 153 C 852.788 153, 850.473 155.363, 848.313 158.250 M 581.692 467.475 C 561.052 471.988, 545.461 492.074, 544.802 515 C 544.220 535.263, 562.321 554.581, 583.025 555.791 C 606.901 557.187, 628.891 540.846, 635.227 517 C 637.419 508.753, 637.442 502.602, 635.312 494.735 C 631.532 480.778, 621.952 470.701, 609.337 467.416 C 602.781 465.708, 589.645 465.736, 581.692 467.475 M 500.190 552.015 C 496.720 553.039, 491.320 555.310, 488.190 557.062 C 482.453 560.274, 470.776 569.313, 468 572.692 C 467.175 573.696, 464.428 576.988, 461.895 580.009 C 447.546 597.120, 437 624.094, 437 643.684 C 437 662.428, 445.026 676.003, 460.587 683.580 C 468.634 687.498, 483.320 688.217, 493.168 685.175 C 515.420 678.302, 535.675 659.453, 548.803 633.401 C 553.104 624.866, 555.491 617.676, 557.534 607.106 C 559.217 598.396, 559.216 597.598, 557.510 588.750 C 556.530 583.663, 554.590 577.093, 553.200 574.151 C 550.037 567.457, 542.296 558.896, 536.457 555.632 C 526.121 549.855, 512.212 548.468, 500.190 552.015 M 294.500 886.607 C 278.742 887.516, 247.640 891.920, 238.412 894.550 C 235.614 895.347, 232.654 896, 231.835 896 C 231.016 896, 226.155 897.393, 221.034 899.095 C 206.291 903.996, 195.129 910.900, 193.033 916.414 C 192.034 919.041, 194.689 942.039, 199.450 972 C 201.685 986.065, 201.662 985.521, 200 985.304 C 199.175 985.197, 195.843 984.184, 192.595 983.054 C 189.347 981.924, 184.895 981, 182.703 981 C 173.849 981, 158.020 987.831, 150.683 994.817 C 146.309 998.982, 141.508 1006.862, 138.995 1014 C 137.067 1019.479, 136.704 1022.546, 136.688 1033.520 C 136.668 1047.209, 137.643 1052.293, 142.588 1064.285 C 150.635 1083.801, 166.453 1096, 183.713 1096 C 196.422 1096, 204.302 1092.577, 214.265 1082.727 C 218.033 1079.001, 221.494 1076.187, 221.957 1076.474 C 222.420 1076.760, 223.355 1079.358, 224.035 1082.247 C 224.714 1085.136, 225.821 1089.075, 226.494 1091 C 227.167 1092.925, 228.518 1096.975, 229.498 1100 C 234.452 1115.301, 244.984 1130.493, 256.573 1139.054 C 275.634 1153.135, 306.701 1159.656, 342.676 1157.128 C 367.585 1155.377, 382.275 1151.894, 397.289 1144.179 C 416.478 1134.319, 428.493 1118.130, 436.017 1092 C 437.205 1087.875, 438.767 1082.700, 439.488 1080.500 C 440.210 1078.300, 441.556 1073.575, 442.480 1070 C 443.404 1066.425, 444.773 1061.250, 445.522 1058.500 C 448.330 1048.192, 451.013 1037.050, 454.431 1021.500 C 459.618 997.901, 466.832 955.368, 469.018 935.500 C 469.562 930.550, 470.282 924.429, 470.617 921.897 C 471.186 917.600, 470.991 917.058, 467.680 913.747 C 461.394 907.460, 434.249 895.597, 421 893.345 C 384.074 887.070, 379.905 886.723, 338.500 886.482 C 317.600 886.361, 297.800 886.417, 294.500 886.607 M 680.500 954.806 C 674.035 957.544, 671.461 959.737, 668.650 964.902 C 663.051 975.189, 666.037 987.025, 676 994.037 C 679.025 996.166, 680.585 996.496, 687.500 996.471 C 697.188 996.435, 701.280 994.356, 705.934 987.102 C 708.579 982.981, 709 981.400, 709 975.591 C 709 965.113, 704.496 958.738, 694.230 954.686 C 688.941 952.598, 685.645 952.627, 680.500 954.806 M 1089.973 954.653 C 1081.861 960.077, 1078 966.314, 1078 973.992 C 1078 982.908, 1082.406 990.078, 1090.413 994.195 C 1093.478 995.771, 1095.755 996.127, 1100.917 995.835 C 1113.267 995.137, 1121.389 986.679, 1121.361 974.546 C 1121.339 965.566, 1117.339 958.774, 1109.790 954.903 C 1104.926 952.408, 1093.544 952.265, 1089.973 954.653 M 1468.690 1036.750 C 1468.455 1037.162, 1467.696 1039.300, 1467.003 1041.500 C 1464.055 1050.855, 1454.658 1074.076, 1448.994 1086 C 1443.302 1097.983, 1442.523 1099.492, 1441.161 1101.187 C 1438.871 1104.034, 1440.741 1105.282, 1446.379 1104.670 C 1462.758 1102.893, 1479.541 1093.786, 1484.510 1083.980 C 1487.559 1077.963, 1487.672 1072.729, 1484.940 1064 C 1483.123 1058.196, 1474.405 1040.484, 1471.772 1037.250 C 1470.626 1035.842, 1469.328 1035.631, 1468.690 1036.750 M 1215.500 1327.525 C 1205.199 1333.217, 1189.357 1341.044, 1182.750 1343.706 C 1180.483 1344.620, 1179 1345.888, 1179 1346.915 C 1179 1347.848, 1183.153 1352.187, 1188.228 1356.556 C 1193.304 1360.925, 1202.310 1368.888, 1208.241 1374.250 C 1214.172 1379.612, 1219.658 1384, 1220.432 1384 C 1221.581 1384, 1221.848 1381.123, 1221.883 1368.383 C 1221.927 1352.264, 1223.434 1341.187, 1227.137 1329.746 C 1228.162 1326.581, 1229 1323.544, 1229 1322.996 C 1229 1320.901, 1225.151 1322.192, 1215.500 1327.525 M 593.614 1335.816 C 593.336 1336.265, 593.836 1339.978, 594.725 1344.066 C 595.815 1349.078, 596.367 1356.794, 596.421 1367.749 C 596.478 1379.438, 596.828 1383.998, 597.669 1383.999 C 598.931 1384, 628.690 1358.036, 630.741 1355.144 C 631.862 1353.563, 630.216 1352.507, 613.679 1344.197 C 603.612 1339.139, 595.093 1335, 594.747 1335 C 594.401 1335, 593.891 1335.367, 593.614 1335.816" stroke="none" fill="black" fill-rule="evenodd"/>
</svg>